<?xml version="1.0" encoding="utf-8"?>
<!-- Generator: Adobe Illustrator 23.0.3, SVG Export Plug-In . SVG Version: 6.00 Build 0)  -->
<svg version="1.1" id="Icons" xmlns="http://www.w3.org/2000/svg" xmlns:xlink="http://www.w3.org/1999/xlink" x="0px" y="0px"
	 viewBox="0 0 32 32" style="enable-background:new 0 0 32 32;" xml:space="preserve">
<style type="text/css">
	.st0{fill:none;stroke:#000000;stroke-width:2;stroke-linecap:round;stroke-linejoin:round;stroke-miterlimit:10;}
</style>
<g>
	<path d="M30,26h-2.1c0.1-0.7,0.1-1.3,0.1-2c0-0.5,0-0.9,0-1.4c0-0.6-0.5-1-1.1-0.9c-0.6,0-1,0.5-0.9,1.1c0,0.4,0,0.8,0,1.3
		c0,0.7,0,1.3-0.1,2H5.5l16-15.3c0.7,0.9,1.3,1.9,1.9,2.9c0.2,0.3,0.5,0.5,0.9,0.5c0.2,0,0.3,0,0.5-0.1c0.5-0.3,0.7-0.9,0.4-1.4
		c-0.6-1.2-1.4-2.3-2.2-3.3l2.7-2.6c0.4-0.4,0.4-1,0-1.4c-0.4-0.4-1-0.4-1.4,0l-22,21C2,26.6,1.9,27,2.1,27.4C2.2,27.8,2.6,28,3,28
		h27c0.6,0,1-0.4,1-1S30.6,26,30,26z"/>
	<path d="M25.2,14.9c-0.5,0.2-0.8,0.8-0.6,1.3c0.5,1.2,0.8,2.4,1,3.7c0.1,0.5,0.5,0.8,1,0.8c0.1,0,0.1,0,0.2,0
		c0.5-0.1,0.9-0.6,0.8-1.2c-0.3-1.4-0.6-2.7-1.1-4C26.3,15,25.7,14.7,25.2,14.9z"/>
</g>
</svg>
