<svg width="134" height="200" viewBox="0 0 134 200" fill="none" xmlns="http://www.w3.org/2000/svg">
<rect width="134" height="200" fill="#E5E5E5"/>
<path d="M18 2.5H76C96.7107 2.5 113.5 19.2893 113.5 40V164C113.5 172.56 106.56 179.5 98 179.5H18C9.43959 179.5 2.5 172.56 2.5 164V18C2.5 9.43959 9.43959 2.5 18 2.5Z" stroke="black" stroke-width="5"/>
<path d="M36 20.5H94C114.711 20.5 131.5 37.2893 131.5 58V182C131.5 190.56 124.56 197.5 116 197.5H36C27.4396 197.5 20.5 190.56 20.5 182V36C20.5 27.4396 27.4396 20.5 36 20.5Z" stroke="black" stroke-width="5"/>
<line x1="36.5" y1="36.5" x2="100.5" y2="36.5" stroke="black" stroke-width="5" stroke-linecap="round"/>
<line x1="36.5" y1="50.5" x2="100.5" y2="50.5" stroke="black" stroke-width="5" stroke-linecap="round"/>
<line x1="36.5" y1="65.5" x2="100.5" y2="65.5" stroke="black" stroke-width="5" stroke-linecap="round"/>
<line x1="36.5" y1="81.5" x2="100.5" y2="81.5" stroke="black" stroke-width="5" stroke-linecap="round"/>
<rect x="35.5" y="99.5" width="66" height="66" rx="7.5" stroke="black" stroke-width="3"/>
<path d="M55 131L35.5 148V160L37.5 163.5L42 165.5H87L55 131Z" stroke="black" stroke-width="3"/>
<circle cx="82.5" cy="119.5" r="8" stroke="black" stroke-width="3"/>
</svg>
