<?xml version="1.0" encoding="UTF-8" standalone="no"?> <svg width="24" height="24" viewBox="0 0 24 24" fill="none" xmlns="http://www.w3.org/2000/svg">
<path fill-rule="evenodd" clip-rule="evenodd" d="M16.5352 3.29314C16.1446 2.90261 15.5115 2.90261 15.121 3.29314L3.29314 15.121C2.90261 15.5115 2.90261 16.1447 3.29314 16.5352L7.46471 20.7067C7.85523 21.0973 8.4884 21.0973 8.87892 20.7067L10.5857 18.9999L9.29283 17.7071C8.90231 17.3165 8.90231 16.6834 9.29283 16.2928C9.68336 15.9023 10.3165 15.9023 10.707 16.2928L11.9999 17.5857L14.0857 15.4999L13.2928 14.707C12.9023 14.3165 12.9023 13.6834 13.2928 13.2928C13.6834 12.9023 14.3165 12.9023 14.707 13.2928L15.4999 14.0857L17.5857 11.9999L16.2928 10.707C15.9023 10.3165 15.9023 9.68336 16.2928 9.29284C16.6834 8.90231 17.3165 8.90231 17.707 9.29284L18.9999 10.5857L20.7067 8.87892C21.0973 8.4884 21.0973 7.85524 20.7067 7.46471L16.5352 3.29314ZM13.7067 1.87892C14.8783 0.707353 16.7778 0.707349 17.9494 1.87892L22.121 6.0505C23.2925 7.22207 23.2925 9.12156 22.121 10.2931L10.2931 22.121C9.12156 23.2925 7.22207 23.2925 6.0505 22.121L1.87892 17.9494C0.707349 16.7778 0.707353 14.8783 1.87892 13.7067L13.7067 1.87892Z" fill="#293644"/>
</svg>
